<?xml version="1.0" ?><svg id="Outline" viewBox="0 0 512 512" xmlns="http://www.w3.org/2000/svg"><defs><style>.cls-1{fill:#262626;}</style></defs><path class="cls-1" d="M380.93,94.82h-69.4a56.43,56.43,0,0,0-111.06,0h-67.4a55,55,0,0,0-54.89,54.89v18.14a11.34,11.34,0,0,0,11.34,11.34h25.39l9.61,268a11.34,11.34,0,0,0,11.33,10.93h242.3a11.34,11.34,0,0,0,11.33-10.93l9.61-268h25.39a11.34,11.34,0,0,0,11.34-11.34V149.71A55,55,0,0,0,380.93,94.82ZM256,71.09a33.82,33.82,0,0,1,32.24,23.73H223.76A33.82,33.82,0,0,1,256,71.09ZM367.21,435.41H146.79L137.6,179.19H376.4Zm45.93-278.9H100.86v-6.8a32.25,32.25,0,0,1,32.21-32.21H380.93a32.25,32.25,0,0,1,32.21,32.21Z"/><path class="cls-1" d="M255.16,395.4a11.34,11.34,0,0,0,11.34-11.34V220.23a11.34,11.34,0,1,0-22.67,0V384.06A11.34,11.34,0,0,0,255.16,395.4Z"/><path class="cls-1" d="M311.85,395.4a11.34,11.34,0,0,0,11.33-11.34V220.23a11.34,11.34,0,1,0-22.67,0V384.06A11.34,11.34,0,0,0,311.85,395.4Z"/><path class="cls-1" d="M199.38,395.4a11.34,11.34,0,0,0,11.34-11.34V220.23a11.34,11.34,0,0,0-22.68,0V384.06A11.34,11.34,0,0,0,199.38,395.4Z"/></svg>